<?xml version="1.0" encoding="UTF-8" standalone="yes"?>
<!DOCTYPE svg PUBLIC "-//W3C//DTD SVG 1.0//EN" "http://www.w3.org/TR/2001/REC-SVG-20010904/DTD/svg10.dtd">
<svg height="100%" viewBox="0 0 28 36" width="100%" xmlns="http://www.w3.org/2000/svg" xmlns:svg="http://www.w3.org/2000/svg" xmlns:xlink="http://www.w3.org/1999/xlink">
	<path d="m 22.982018,19.224813c -0.033870,-2.099736 -1.049868,-9.482677 -2.980269,-11.345345c -2.099736,-2.065869 -6.739474,-1.794935 -6.739474,-1.794935c 0.000000,0.000000 -4.707471,0.067730 -6.062139,1.320801c -1.354668,1.253068 -2.438402,6.299206 -2.133602,12.158149c 0.304800,5.858940 0.914401,7.112000 1.557868,7.857070c 0.643468,0.745070 2.506136,2.540000 6.231473,2.506140c 3.691470,-0.067700 6.129873,-1.151470 8.026408,-3.386670c 1.930402,-2.201340 2.133602,-5.181610 2.099735,-7.315210zm -7.992541,8.297340c -0.270934,0.067700 -1.083734,-0.135470 -1.524001,-0.643470c -0.270934,-0.338660 -0.643468,-0.914400 -0.812801,-1.320800c -0.237067,-0.643470 -1.388535,-8.466673 -1.456268,-9.042407c -0.067730,-0.575734 -0.778934,-6.773340 -0.067730,-7.416807c 0.711201,-0.643467 2.032002,-0.609601 2.032002,-0.609601c 0.000000,0.000000 1.659469,-0.033870 2.032002,0.541868c 0.406401,0.541867 1.219201,2.878669 1.422402,8.805341c 0.203200,5.926676 0.135466,9.042406 -1.625602,9.685876m -0.700000,-8.000000c 0.404501,-0.056600 0.837311,-0.516570 0.911573,-1.363971c 0.055150,-0.629357 -0.231416,-3.892318 -0.363833,-4.243432c -0.191247,-0.507114 -2.000186,-0.482867 -2.087323,0.081520c -0.145896,0.944966 0.092360,3.813661 0.265256,4.307653c 0.318623,0.910360 0.869827,1.274820 1.274327,1.218230z" />
</svg>