<?xml version="1.0" encoding="UTF-8" standalone="no"?>
<svg
   xmlns:dc="http://purl.org/dc/elements/1.1/"
   xmlns:cc="http://creativecommons.org/ns#"
   xmlns:rdf="http://www.w3.org/1999/02/22-rdf-syntax-ns#"
   xmlns:svg="http://www.w3.org/2000/svg"
   xmlns="http://www.w3.org/2000/svg"
   xmlns:sodipodi="http://sodipodi.sourceforge.net/DTD/sodipodi-0.dtd"
   xmlns:inkscape="http://www.inkscape.org/namespaces/inkscape"
   sodipodi:docname="10-pair.svg"
   inkscape:version="1.0 (4035a4f, 2020-05-01)"
   id="svg2097"
   version="1.1"
   viewBox="0 0 7.4083332 9.5250003"
   height="36"
   width="28">
  <defs
     id="defs2091" />
  <sodipodi:namedview
     inkscape:window-maximized="0"
     inkscape:window-y="23"
     inkscape:window-x="40"
     inkscape:window-height="855"
     inkscape:window-width="1252"
     units="px"
     inkscape:snap-global="false"
     showgrid="false"
     inkscape:document-rotation="0"
     inkscape:current-layer="layer1"
     inkscape:document-units="mm"
     inkscape:cy="18.341425"
     inkscape:cx="20.649471"
     inkscape:zoom="9.5753488"
     inkscape:pageshadow="2"
     inkscape:pageopacity="0.0"
     borderopacity="1.0"
     bordercolor="#666666"
     pagecolor="#ffffff"
     id="base" />
  <metadata
     id="metadata2094">
    <rdf:RDF>
      <cc:Work
         rdf:about="">
        <dc:format>image/svg+xml</dc:format>
        <dc:type
           rdf:resource="http://purl.org/dc/dcmitype/StillImage" />
        <dc:title></dc:title>
      </cc:Work>
    </rdf:RDF>
  </metadata>
  <g
     id="layer1"
     inkscape:groupmode="layer"
     inkscape:label="Layer 1">
    <path
       d="M 2.2692037,1.601977 1.0796122,1.7425369 0.36802774,2.7688309 0.33133748,4.0591913 1.0584249,3.0215286 c -0.0096,0.54786 -0.29782852,2.2949545 -0.45061852,3.4106445 l -0.44803465,-0.00827 c -0.05529,0.4117199 -0.06407878,1.494999 -0.06407878,1.4949992 l 2.23758945,0.00413 -0.00103,-0.984436 -0.342098,0.00103 c 0.0192,-0.6145501 0.054099,-1.3112321 0.064079,-1.9952271 0.01792,-1.227604 0.214974,-3.3424316 0.214974,-3.3424316 z m 2.6711548,0.00982 c -0.1237681,-0.00182 -0.2005047,0.00258 -0.2005047,0.00258 0,0 -1.2456064,0.017773 -1.6040364,0.3493327 -0.3584199,0.33155 -0.6449566,1.6666739 -0.5643066,3.2168578 0.0806,1.55018 0.242128,1.8818029 0.4123778,2.0789429 0.1702501,0.1971322 0.6628082,0.671971 1.6484783,0.6630108 C 5.609067,7.9046214 6.2544783,7.6178519 6.7562683,7.0264521 7.2670183,6.4440219 7.3207499,5.6556895 7.3117898,5.0911698 7.30279,4.5356157 7.0339575,2.5821157 6.5232074,2.0892857 6.1065376,1.6793432 5.3116629,1.6172569 4.9403585,1.6117955 Z M 4.7129822,2.2505162 c 0,0 0.4393816,-0.00871 0.5379516,0.1436605 0.1075201,0.14337 0.3224443,0.7614734 0.3762045,2.3295736 0.0538,1.5681039 0.035962,2.3923842 -0.4299479,2.562634 -0.0717,0.0179 -0.2871132,-0.035565 -0.4035931,-0.1700154 C 4.7218974,7.0267691 4.6234335,6.8745564 4.5786234,6.7670364 4.5159235,6.5967862 4.2115539,4.5267477 4.193634,4.3744175 4.1757339,4.2220876 3.9873571,2.5819967 4.1755473,2.4117467 4.3637171,2.2414967 4.7129822,2.2505162 4.7129822,2.2505162 Z m 0.1570964,1.3399697 c -0.1288614,0.0035 -0.2540921,0.042626 -0.2656171,0.1173057 -0.0386,0.2500199 0.02448,1.009282 0.07028,1.1399822 0.0843,0.240874 0.2299004,0.3369241 0.3369304,0.3219439 0.10702,-0.015 0.2216791,-0.1364874 0.2413289,-0.3607014 0.0146,-0.1665201 -0.061018,-1.0300288 -0.096118,-1.1229287 -0.0253,-0.06709 -0.1579431,-0.099104 -0.2868042,-0.095602 z"
       style="stroke-width:0.264583"
       id="path2155" />
  </g>
</svg>
