<?xml version="1.0" encoding="UTF-8" standalone="yes"?>
<!DOCTYPE svg PUBLIC "-//W3C//DTD SVG 1.0//EN" "http://www.w3.org/TR/2001/REC-SVG-20010904/DTD/svg10.dtd">
<svg height="100%" viewBox="0 0 28 36" width="100%" xmlns="http://www.w3.org/2000/svg" xmlns:svg="http://www.w3.org/2000/svg" xmlns:xlink="http://www.w3.org/1999/xlink">
	<path d="m 4.077057,12.869196c 0.000000,0.000000 4.064004,-0.914401 7.078140,-1.049867c 3.014137,-0.169334 4.097871,0.914401 4.097871,0.914401l -9.685876,10.227740l 0.000000,6.976540l 16.493082,-2.336800l 1.862669,-6.028270c 0.000000,0.000000 -1.557868,0.541870 -3.420537,1.016000c -1.828801,0.440270 -7.349073,0.846670 -8.466674,0.440270c -1.117602,-0.372540 -1.354668,-0.982140 -1.354668,-0.982140l 9.652009,-9.008540c 0.000000,0.000000 -0.914401,-3.285070 -1.354668,-4.334938c -0.270934,-0.643467 -1.049868,-1.456268 -1.693335,-1.761068c -0.474134,-0.270934 -2.912536,-0.880534 -5.181605,-0.880534c -2.302936,0.000000 -6.366940,1.185334 -6.366940,1.185334z" />
</svg>