<?xml version="1.0" encoding="UTF-8" standalone="yes"?>
<!DOCTYPE svg PUBLIC "-//W3C//DTD SVG 1.0//EN" "http://www.w3.org/TR/2001/REC-SVG-20010904/DTD/svg10.dtd">
<svg height="100%" viewBox="0 0 28 36" width="100%" xmlns="http://www.w3.org/2000/svg" xmlns:svg="http://www.w3.org/2000/svg" xmlns:xlink="http://www.w3.org/1999/xlink">
	<path d="m 7.427735,6.870062l -1.998135,6.773340c 1.727202,-0.474134 4.470404,-1.422402 6.129873,-2.099736c 2.472269,-0.982134 4.842938,-1.117601 5.825072,-1.016001c 0.000000,0.000000 0.000000,0.000000 0.000000,0.000000c 0.203200,0.000000 0.338667,0.135467 0.338667,0.304801c 0.000000,0.101600 -0.101600,0.203200 -0.169334,0.270933c -1.219201,0.643468 -4.064004,2.099736 -4.673604,2.472269c -0.575734,0.372534 -2.404536,1.896535 -3.285070,2.607736c -0.067730,0.067730 -0.135467,0.203200 -0.135467,0.304800c 0.000000,0.203201 0.169334,0.372534 0.338667,0.372534c 1.591735,0.406401 5.350939,1.185335 5.655739,2.133600c 0.338667,1.185340 1.727202,4.301070 -2.302936,4.572010c -4.030137,0.304800 -7.653874,-1.354670 -7.653874,-1.354670l 3.522137,7.315210c 4.267204,0.812800 8.873075,0.270930 10.735747,-1.049870c 1.828800,-1.320800 3.217330,-2.607740 2.709330,-6.570140c -0.372530,-3.217340 -5.080002,-6.129874 -6.671737,-7.078142c -0.067730,-0.033870 -0.135467,-0.135467 -0.135467,-0.203200c 0.000000,-0.135467 0.101600,-0.237067 0.237067,-0.270934l 4.978407,-0.914400c 0.338660,-0.033870 0.677330,-0.338667 0.745070,-0.643468c 0.643460,-3.725337 0.406400,-5.012271 -0.711210,-5.858939c -1.185330,-0.914401 -4.538133,-0.778934 -6.604002,-0.846667c -2.065868,-0.033870 -6.874940,0.778934 -6.874940,0.778934z" />
</svg>