<?xml version="1.0" encoding="UTF-8" standalone="yes"?>
<!DOCTYPE svg PUBLIC "-//W3C//DTD SVG 1.0//EN" "http://www.w3.org/TR/2001/REC-SVG-20010904/DTD/svg10.dtd">
<svg height="100%" viewBox="0 0 28 36" width="100%" xmlns="http://www.w3.org/2000/svg" xmlns:svg="http://www.w3.org/2000/svg" xmlns:xlink="http://www.w3.org/1999/xlink">
	<path d="m 4.314622,7.247324l 0.000000,12.530676c 0.000000,0.000000 -0.067700,2.777070 0.914400,3.962410c 0.948270,1.219200 4.165610,0.846660 6.434680,0.474130l -1.320810,5.825070l 8.636010,0.000000l 0.000000,-5.384800l 4.707470,-1.083740l 0.000000,-2.641600l -4.131730,0.338670l 1.896530,-12.598414c 0.000000,0.000000 -2.269070,-0.948268 -6.231470,-0.914401c 0.000000,0.000000 -0.677340,8.703742 -1.049870,11.684015c -0.067700,0.372530 -0.101600,1.388530 -0.440270,1.490130c -0.677330,0.203200 -3.725330,1.286940 -4.605870,0.643470c -0.914400,-0.609600 0.812800,-6.129874 1.557870,-8.026410c 0.982140,-2.438402 1.896540,-7.586140 1.896540,-7.586140z" />
</svg>