<?xml version="1.0" encoding="UTF-8" standalone="yes"?>
<!DOCTYPE svg PUBLIC "-//W3C//DTD SVG 1.0//EN" "http://www.w3.org/TR/2001/REC-SVG-20010904/DTD/svg10.dtd">
<svg height="100%" viewBox="0 0 28 36" width="100%" xmlns="http://www.w3.org/2000/svg" xmlns:svg="http://www.w3.org/2000/svg" xmlns:xlink="http://www.w3.org/1999/xlink">
	<path d="m 5.399940,20.336800c 0.000000,0.000000 8.602140,-0.135460 9.618140,0.846670c 0.982130,0.982140 0.711200,2.980270 0.169330,3.556000c -0.541870,0.575740 -1.219200,1.016010 -3.657600,1.016010c -2.438400,0.000000 -7.721610,-1.625610 -7.721610,-1.625610l 3.454400,5.858940c 7.687750,-0.067700 14.224020,-1.490130 15.544820,-3.556000c 1.320800,-2.032000 2.641600,-5.418670 -0.846670,-8.026410c -3.488270,-2.641601 -13.614410,-2.573867 -13.614410,-2.573867c -0.067700,-5.858939 -0.880540,-5.689606 2.032000,-5.080005c 2.878670,0.609600 8.094140,3.318936 8.094140,3.318936l 0.643470,-7.552274c 0.000000,0.000000 -0.745070,-0.101600 -3.826940,-0.270933c -3.115730,-0.135467 -9.889070,-0.237067 -9.889070,-0.237067z" />
</svg>