<?xml version="1.0" encoding="UTF-8" standalone="yes"?>
<!DOCTYPE svg PUBLIC "-//W3C//DTD SVG 1.0//EN" "http://www.w3.org/TR/2001/REC-SVG-20010904/DTD/svg10.dtd">
<svg height="100%" viewBox="0 0 28 36" width="100%" xmlns="http://www.w3.org/2000/svg" xmlns:svg="http://www.w3.org/2000/svg" xmlns:xlink="http://www.w3.org/1999/xlink">
	<path d="m 23.041851,15.582025c -0.880540,-1.151468 -2.777070,-1.761069 -5.520270,-2.167469c -2.777070,-0.372534 -5.452540,1.083734 -5.452540,1.083734c -1.524000,-3.488270 3.623730,-8.398941 3.623730,-8.398941l -6.536270,0.711200c -0.711200,0.575734 -1.761070,1.625602 -2.336800,2.302936c -1.016000,1.253068 -3.623740,7.484541 -1.998140,13.174144c 1.591740,5.689610 3.251210,7.213610 8.636010,7.552280c 5.384810,0.338660 7.620010,-0.677340 8.974680,-4.605880c 1.625600,-4.639730 1.524000,-8.500537 0.609600,-9.652004zm -6.536280,3.014134l -0.812800,6.841080c -0.135460,0.846660 -1.185330,1.456260 -2.302930,1.320800l -2.844800,-0.372540c -1.219210,-0.270930 -2.099740,-1.117600 -2.065870,-2.099730l 0.270930,-5.317070c 0.033900,-0.812805 0.846670,-1.490139 1.930400,-1.557873l 4.368810,0.000000c 0.846660,-0.033870 1.524000,0.541868 1.456260,1.185333z" />
</svg>