<?xml version="1.0" encoding="UTF-8" standalone="yes"?>
<!DOCTYPE svg PUBLIC "-//W3C//DTD SVG 1.0//EN" "http://www.w3.org/TR/2001/REC-SVG-20010904/DTD/svg10.dtd">
<svg height="100%" viewBox="0 0 28 36" width="100%" xmlns="http://www.w3.org/2000/svg" xmlns:svg="http://www.w3.org/2000/svg" xmlns:xlink="http://www.w3.org/1999/xlink">
	<path d="m 22.123739,18.227583c -0.778940,-0.304799 -1.964270,-0.914399 -2.675470,-1.320800c -0.067700,-0.033870 -0.101600,-0.135467 -0.101600,-0.169333c 0.000000,-0.067730 0.033900,-0.135467 0.067700,-0.169334c 1.896540,-1.591735 2.472270,-2.844802 2.607740,-3.623737c 0.101600,-0.745067 0.237060,-2.980269 -2.641600,-5.113871c -3.318940,-2.472269 -8.602150,-2.269069 -11.751750,-0.067730c -3.115740,2.201336 -3.962400,6.874940 -3.014140,8.297342c 0.812800,1.219201 3.352810,2.133593 4.165610,2.438403c 0.033900,0.000000 0.101600,0.067700 0.101600,0.101600c 0.000000,0.033900 -0.033900,0.101600 -0.067700,0.101600c -0.812800,0.508000 -3.488270,2.201330 -3.623730,3.115730c -0.508000,3.522140 2.438400,6.400810 3.251200,6.841070c 0.778940,0.474140 1.625600,1.117610 5.689610,1.286940c 4.097870,0.203200 7.044270,-2.472270 8.669870,-5.621870c 1.625600,-3.183470 1.016000,-5.350940 -0.677330,-6.096010zm -6.434680,2.743200l -0.406400,4.064010c -0.067700,0.508000 -0.541860,0.880530 -1.049860,0.880530c -0.033900,0.000000 -0.067700,0.000000 -0.101600,0.000000l -4.097870,-0.338660c -0.575740,-0.101600 -1.083740,-0.643470 -1.083740,-1.219210c 0.000000,-0.033900 0.000000,-0.067700 0.033900,-0.101600l 0.541870,-3.759200c 0.033900,-0.270930 0.304800,-0.508000 0.575730,-0.508000c 0.000000,0.000000 0.000000,0.000000 0.033900,0.000000l 5.012270,0.304800c 0.304800,0.033900 0.541860,0.304800 0.541860,0.609600c 0.000000,0.033900 0.000000,0.067700 0.000000,0.067700zm 1.354670,-5.080001l -3.556000,0.169334c -0.033900,0.000000 -0.033900,0.000000 -0.033900,0.000000c -0.270930,0.000000 -0.541860,-0.237067 -0.609600,-0.508001l -0.643470,-4.707471c 0.000000,-0.033870 0.000000,-0.101600 0.000000,-0.135467c 0.000000,-0.575734 0.508010,-1.117601 1.083740,-1.151467l 3.725340,-0.270934c 0.000000,0.000000 0.033900,0.000000 0.033900,0.000000c 0.237070,0.000000 0.440270,0.169333 0.474140,0.440267l 0.270930,5.418672c 0.000000,0.406400 -0.338670,0.745067 -0.745070,0.745067z" />
</svg>