<?xml version="1.0" encoding="UTF-8" standalone="yes"?>
<!DOCTYPE svg PUBLIC "-//W3C//DTD SVG 1.0//EN" "http://www.w3.org/TR/2001/REC-SVG-20010904/DTD/svg10.dtd">
<svg height="100%" viewBox="0 0 28 36" width="100%" xmlns="http://www.w3.org/2000/svg" xmlns:svg="http://www.w3.org/2000/svg" xmlns:xlink="http://www.w3.org/1999/xlink">
	<path d="m 20.120034,7.664321c -1.049870,-0.778935 -10.397070,-3.217337 -13.038680,0.643467c -2.641600,3.860804 -2.472270,12.496808 -1.930400,13.072548c 0.575730,0.541860 3.048000,2.032000 6.129870,2.065870c 2.065870,0.000000 4.402670,-1.320800 5.350940,-1.828810c 0.033900,-0.033900 0.101600,-0.033900 0.135470,-0.033900c 0.101600,0.000000 0.203200,0.101600 0.203200,0.237060c 0.000000,0.033900 0.000000,0.067700 -0.033900,0.101600c -0.541870,0.812810 -1.524000,1.998140 -2.201330,2.675470c -1.083740,1.049870 -2.946410,2.438410 -2.946410,2.438410l 2.201340,2.777070c 1.862670,-0.067700 4.538140,-1.016010 5.994400,-2.133610c 1.219210,-1.016000 3.014140,-2.878670 3.183470,-9.584272c 0.169340,-6.536273 -2.167460,-9.821343 -3.048000,-10.430943zm -2.370670,7.992541l -5.588000,5.046134c -0.169340,0.135470 -1.049870,0.237070 -1.185340,0.033900c -0.101600,-0.169330 -0.237060,-0.474130 -0.270930,-0.677330c -0.406400,-1.659470 -0.067700,-6.874943 -0.067700,-6.874943c 0.000000,-0.406401 0.203200,-0.982135 0.440260,-1.286935l 2.946410,-3.183470c 0.169330,-0.203200 0.541860,-0.372533 0.812800,-0.372533c 0.270930,0.000000 0.643460,0.169333 0.812800,0.372533l 2.675470,3.623737c 0.541860,0.778934 0.101600,2.641603 -0.575740,3.318937z" />
</svg>