<?xml version="1.0" encoding="UTF-8" standalone="yes"?>
<!DOCTYPE svg PUBLIC "-//W3C//DTD SVG 1.0//EN" "http://www.w3.org/TR/2001/REC-SVG-20010904/DTD/svg10.dtd">
<svg height="100%" viewBox="0 0 28 36" width="100%" xmlns="http://www.w3.org/2000/svg" xmlns:svg="http://www.w3.org/2000/svg" xmlns:xlink="http://www.w3.org/1999/xlink">
	<path d="m 20.899285,21.928585c 0.000000,-1.286940 -0.609601,-8.331210 -0.982134,-9.516540c -0.338667,-1.219200 -1.016001,-2.167470 -1.693335,-2.404540c -0.677334,-0.270930 -4.809071,-0.270930 -4.809071,-0.270930c 0.000000,0.000000 -4.910672,-0.033900 -5.588006,1.151470c -0.677334,1.219200 -1.049868,2.743200 -0.575734,3.962400c 0.372534,0.982130 3.386670,0.778930 4.673605,0.677330c 0.237067,-0.033900 0.406400,-0.237060 0.406400,-0.474130c 0.000000,-0.033900 0.000000,-0.101600 0.000000,-0.135470c -0.101600,-0.406400 -0.135467,-0.948260 0.304800,-1.151470c 0.745068,-0.372530 3.352804,-0.745060 3.826937,-0.203200c 0.508001,0.541870 0.711201,3.589870 0.711201,3.589870c 0.000000,0.000000 -7.958674,0.575740 -8.568275,0.812810c -0.575734,0.270930 -0.948267,1.320800 -0.846667,3.589870c 0.135467,2.269060 0.101600,2.912530 0.846667,3.556000c 0.677334,0.575730 6.062139,0.237070 7.247474,0.169330c 0.000000,0.000000 0.033870,0.000000 0.033870,0.000000c 0.101600,0.000000 0.203200,0.067700 0.237066,0.203200l 0.033870,0.440270c 0.033870,0.203200 0.203200,0.338670 0.406401,0.338670c 0.000000,0.000000 0.000000,0.000000 0.033870,0.000000c 0.880534,-0.067700 2.302936,-0.372540 3.115737,-0.677340c 1.659468,-0.677330 1.185334,-2.336800 1.185334,-3.657600zm -5.892806,1.422400c -1.693335,-0.033900 -1.794935,-0.745070 -1.930401,-2.709340c -0.135467,-1.930400 2.370668,-2.167460 2.370668,-2.167460c 0.135467,0.000000 0.338667,0.000000 0.474134,0.000000c 0.237067,0.000000 0.643468,0.000000 0.914401,0.033900c 0.846668,0.067700 1.354668,0.575740 1.354668,2.844810c 0.000000,2.269060 -1.524001,1.998130 -3.183470,1.998130z" />
</svg>