<?xml version="1.0" encoding="UTF-8" standalone="yes"?>
<!DOCTYPE svg PUBLIC "-//W3C//DTD SVG 1.0//EN" "http://www.w3.org/TR/2001/REC-SVG-20010904/DTD/svg10.dtd">
<svg height="100%" viewBox="0 0 28 36" width="100%" xmlns="http://www.w3.org/2000/svg" xmlns:svg="http://www.w3.org/2000/svg" xmlns:xlink="http://www.w3.org/1999/xlink">
	<path d="m 21.826230,18.319014c 0.000000,-0.474130 -0.372534,-1.117600 -0.778934,-1.422400c -0.508001,-0.338670 -1.456268,-0.643470 -2.065869,-0.711200c -3.420536,-0.406400 -6.739473,1.151460 -6.739473,1.151460l 0.609601,-11.243740l -6.705607,1.286940l 0.643467,21.268280c 0.000000,0.000000 1.693335,1.354670 7.247474,1.253070c 5.554139,-0.067700 6.299206,-0.677330 7.315207,-2.506140c 0.609601,-1.083730 0.508001,-7.145870 0.474134,-9.076270zm -9.956810,7.958670c -2.167468,-0.033900 -2.302935,-0.914400 -2.472269,-3.386670c -0.169333,-2.438400 3.081870,-2.743200 3.081870,-2.743200c 0.169333,0.000000 0.440267,-0.033900 0.609601,-0.033900c 0.304800,0.000000 0.846667,0.033900 1.185334,0.067700c 1.117601,0.101600 1.794935,0.745060 1.794935,3.589870c 0.000000,2.844800 -1.998135,2.540000 -4.199471,2.506130z" />
</svg>