<?xml version="1.0" encoding="UTF-8" standalone="yes"?>
<!DOCTYPE svg PUBLIC "-//W3C//DTD SVG 1.0//EN" "http://www.w3.org/TR/2001/REC-SVG-20010904/DTD/svg10.dtd">
<svg height="100%" viewBox="0 0 28 36" width="100%" xmlns="http://www.w3.org/2000/svg" xmlns:svg="http://www.w3.org/2000/svg" xmlns:xlink="http://www.w3.org/1999/xlink">
	<path d="m 19.972633,19.756496c -1.591735,-1.049867 -4.639737,-2.032002 -5.554138,-2.235202c -0.067730,0.000000 -0.101600,-0.067730 -0.101600,-0.101600c 0.000000,-0.067730 0.033870,-0.101600 0.101600,-0.135467c 0.914401,-0.270933 3.928537,-0.609600 5.147738,-1.591735c 0.846667,-0.677334 0.778934,-3.691470 0.778934,-3.691470c 0.000000,-0.033867 0.000000,-0.067733 0.000000,-0.101600c 0.000000,-0.778934 -0.135467,-2.065869 -0.270934,-2.844803c -0.270933,-1.083734 -1.828801,-2.675469 -3.454403,-2.777069c -0.982134,-0.067733 -2.641602,-0.135467 -4.064004,-0.135467c -2.336802,0.067733 -5.080005,0.338667 -5.655739,0.508000c -0.067733,0.033867 -0.169333,0.135467 -0.169333,0.237067l -0.270934,22.961622c 0.000000,0.000000 1.896536,0.101600 6.536273,-0.372534c 2.506136,-0.270934 6.773340,-0.575734 7.958675,-0.677334c 0.304800,-0.033870 0.575734,-0.304800 0.575734,-0.643467l 0.000000,0.000000c 0.033870,-1.761069 0.067730,-7.281341 -1.557869,-8.398942zm -6.942673,-11.413077c 0.000000,0.000000 0.000000,0.000000 0.000000,0.000000c 0.304800,0.000000 0.677334,0.237067 0.812801,0.474134c 0.237067,0.812801 0.474134,2.133602 0.474134,2.980269c 0.067730,1.219201 -0.067730,2.946403 -0.270934,3.352803c -0.135467,0.270934 -0.474134,0.541867 -0.745067,0.609601c -0.338667,0.101600 -3.048003,0.000000 -3.048003,0.000000l -0.101600,-7.213607c 0.000000,0.000000 2.506135,-0.203200 2.878669,-0.203200zm 5.689605,15.917348c 0.000000,0.270934 -0.067730,0.745068 -0.169333,0.982135c -0.067730,0.203200 -0.609601,0.101600 -0.609601,0.101600l -9.076275,0.000000l 0.169333,-5.621872c 0.000000,0.000000 3.759204,0.338667 5.147739,0.440267c 1.388534,0.067730 3.691470,0.575734 3.996270,0.948267c 0.203200,0.304801 0.406401,0.846668 0.440267,1.185335c 0.033870,0.169333 0.135467,1.659468 0.101600,1.964268z" />
</svg>