<?xml version="1.0" encoding="UTF-8" standalone="yes"?>
<!DOCTYPE svg PUBLIC "-//W3C//DTD SVG 1.0//EN" "http://www.w3.org/TR/2001/REC-SVG-20010904/DTD/svg10.dtd">
<svg height="100%" viewBox="0 0 28 36" width="100%" xmlns="http://www.w3.org/2000/svg" xmlns:svg="http://www.w3.org/2000/svg" xmlns:xlink="http://www.w3.org/1999/xlink">
	<path d="m 15.094837,10.091763c -0.440267,-0.067700 -1.151468,-0.135460 -1.591735,-0.135460c -0.440267,0.000000 -1.151467,0.067700 -1.591735,0.135460c -1.049867,0.203200 -2.336802,0.541870 -3.115736,1.185340c -1.083734,0.948270 -1.828802,3.623740 -2.099735,7.518410c -0.237067,3.894670 0.304800,5.994400 0.812801,6.536270c 0.541867,0.508000 2.844802,0.711200 4.368804,0.711200c 1.557868,0.033900 9.381075,-1.151470 9.381075,-1.151470l -0.270933,-3.928530l -4.436538,0.000000c 0.000000,0.000000 -0.067730,1.354660 -0.508000,1.828800c -0.440267,0.508000 -3.691470,1.049860 -3.962404,0.643460c -0.237067,-0.440260 -0.440267,-4.809070 -0.237067,-7.010400c 0.237067,-2.201340 1.185335,-4.334940 2.235202,-4.334940c 1.049868,0.000000 3.183470,1.659470 3.217337,2.404540c -0.033870,0.609600 -0.203201,1.557860 -0.440267,2.133600l 4.470404,1.286930c 0.000000,0.000000 0.508000,-6.400800 -2.336802,-7.044270c -1.524002,-0.338670 -2.912537,-0.609600 -3.894671,-0.778940z" />
</svg>