<?xml version="1.0" encoding="UTF-8" standalone="yes"?>
<!DOCTYPE svg PUBLIC "-//W3C//DTD SVG 1.0//EN" "http://www.w3.org/TR/2001/REC-SVG-20010904/DTD/svg10.dtd">
<svg height="100%" viewBox="0 0 28 36" width="100%" xmlns="http://www.w3.org/2000/svg" xmlns:svg="http://www.w3.org/2000/svg" xmlns:xlink="http://www.w3.org/1999/xlink">
	<path d="m 15.507070,14.144364l 5.757339,0.000000c 0.000000,0.000000 0.440267,-7.924808 -1.151468,-7.958674c -1.625602,-0.033867 -8.873075,-0.338667 -12.598412,1.286935c -0.745068,0.304800 -1.354668,1.185334 -1.354668,1.998135c 0.000000,0.067733 0.000000,0.169333 0.000000,0.237067l 0.067730,7.755474c 0.000000,0.000000 -0.203200,8.636009 1.151468,10.363210c 1.320801,1.727202 10.668010,1.964269 13.241879,2.032002c 0.000000,0.000000 0.000000,0.000000 0.000000,0.000000c 0.338667,0.000000 0.643468,-0.304800 0.677334,-0.643467l 0.541867,-6.299206l -6.400806,-0.575734l 0.033870,3.352803c 0.000000,0.000000 -0.067730,1.253068 -1.591735,1.253068c -1.388535,0.000000 -2.675469,-0.338667 -2.980269,-1.286934c -0.338667,-0.982135 -0.203201,-7.281341 -0.203201,-7.281341l 0.203201,-7.721607c 0.000000,0.000000 -0.135467,-1.625602 1.930401,-1.625602c 2.032002,0.000000 2.641603,0.711201 2.675470,1.185334z" />
</svg>