<?xml version="1.0" encoding="UTF-8" standalone="yes"?>
<!DOCTYPE svg PUBLIC "-//W3C//DTD SVG 1.0//EN" "http://www.w3.org/TR/2001/REC-SVG-20010904/DTD/svg10.dtd">
<svg height="100%" viewBox="0 0 28 36" width="100%" xmlns="http://www.w3.org/2000/svg" xmlns:svg="http://www.w3.org/2000/svg" xmlns:xlink="http://www.w3.org/1999/xlink">
	<path d="m 15.226711,6.873223l 0.270934,6.908800c 0.000000,0.000000 -2.743203,0.982140 -4.199471,1.354670c -1.422401,0.338670 -3.420536,1.490140 -4.470404,2.540010c -0.541867,0.575730 -0.677334,2.709330 -0.541867,5.147730c 0.135467,2.438410 1.016001,5.283210 1.828802,6.197610c 0.846667,0.948270 6.773339,0.846670 6.773339,0.846670l 5.249339,-0.237070c 0.778934,-0.169330 1.422404,-0.948270 1.422404,-1.727200c 0.000000,0.000000 0.000000,-0.033900 -0.033900,-0.033900l 0.237070,-21.742420zm 4.267204,17.881620c -0.033870,1.896530 -1.828801,2.810930 -2.641602,2.844800c -1.016001,0.000000 -2.438402,-0.609600 -3.183470,-1.286940c -0.914401,-0.948260 -0.609600,-3.623730 -0.609600,-3.623730c 0.304800,-1.794940 1.185334,-5.621880 2.607735,-5.621880c 1.016001,0.000000 2.777070,1.862670 3.285070,3.149610c 0.508001,1.286930 0.609601,2.641600 0.541867,4.538140z" />
</svg>