<?xml version="1.0" encoding="UTF-8" standalone="yes"?>
<!DOCTYPE svg PUBLIC "-//W3C//DTD SVG 1.0//EN" "http://www.w3.org/TR/2001/REC-SVG-20010904/DTD/svg10.dtd">
<svg height="100%" viewBox="0 0 28 36" width="100%" xmlns="http://www.w3.org/2000/svg" xmlns:svg="http://www.w3.org/2000/svg" xmlns:xlink="http://www.w3.org/1999/xlink">
	<path d="m 20.244156,9.153798c -0.135470,-0.677334 -0.745070,-1.490135 -1.388540,-1.828802c -1.354667,-0.711201 -4.064003,-1.286935 -6.976539,-1.151468l -4.876805,0.237067l 0.169333,23.435756c 0.000000,0.000000 6.062139,-0.033870 8.669875,-0.372534c 1.016001,-0.135467 2.573866,-0.609601 3.454406,-1.083734c 0.948270,-0.440267 1.693330,-1.591735 1.693330,-2.641603c 0.033900,-3.725337 0.000000,-12.869346 -0.745060,-16.594683zm -2.540007,9.652010c -0.270934,3.894670 0.000000,5.215471 -0.609601,6.096006c -0.406400,0.609600 -3.860804,0.406400 -3.860804,0.406400l 0.000000,-13.783747c 0.000000,0.000000 3.318937,0.237067 4.165604,0.643467c 0.541868,0.304800 0.575734,2.743202 0.304801,6.637873z" />
</svg>