<?xml version="1.0" encoding="UTF-8" standalone="yes"?>
<!DOCTYPE svg PUBLIC "-//W3C//DTD SVG 1.0//EN" "http://www.w3.org/TR/2001/REC-SVG-20010904/DTD/svg10.dtd">
<svg height="100%" viewBox="0 0 28 36" width="100%" xmlns="http://www.w3.org/2000/svg" xmlns:svg="http://www.w3.org/2000/svg" xmlns:xlink="http://www.w3.org/1999/xlink">
	<path d="m 20.287923,11.828821c -0.372540,-0.406400 -1.049870,-0.982130 -1.524010,-1.286940c -0.338660,-0.203200 -0.914400,-0.406400 -1.286930,-0.440260c -0.711200,-0.067700 -1.930400,-0.169340 -3.420540,-0.203200c -2.370670,-0.033900 -4.673600,0.169330 -5.825070,1.320800c -1.151470,1.117600 -1.557870,1.930400 -1.659470,4.334940c -0.101600,2.404530 0.000000,7.620000 0.000000,7.620000c 0.067700,0.677340 0.541870,1.557870 1.117600,1.930410c 1.388540,0.914400 2.878670,0.982130 5.452540,0.982130c 2.573870,0.000000 5.960540,0.203200 6.773340,-0.745070c 0.474140,-0.508000 1.151470,-1.625600 1.049870,-4.707470l -5.249340,0.203200c 0.000000,0.000000 0.203200,0.677340 -0.372530,0.948270c -0.575740,0.304800 -1.286940,0.372530 -2.404540,0.304800c -1.117600,-0.067700 -2.269070,0.135470 -3.048000,-0.846670c -0.541870,-0.643470 -0.474130,-1.727200 -0.474130,-1.727200l 7.145870,-0.338670c 0.000000,0.000000 2.573870,-0.033900 3.657600,-0.778930c 1.083740,-0.711200 1.219200,-0.711200 1.253070,-2.269070c 0.000000,-1.557870 -0.135470,-3.048000 -1.185330,-4.301070zm -4.978410,5.418670c -0.203200,0.338670 -0.677330,0.609600 -1.083730,0.643470c -0.372540,0.033900 -3.996270,0.474130 -5.317080,0.440270c -0.338660,-0.033900 -0.575730,-0.237070 -0.575730,-1.253070c 0.000000,-0.033900 0.000000,-0.101600 0.000000,-0.169340c 0.000000,-0.474130 0.101600,-1.219200 0.203200,-1.693330c 0.203200,-0.677330 0.914400,-1.320800 1.625600,-1.456270c 0.508000,-0.101600 1.320800,-0.169330 1.862670,-0.169330c 0.609600,0.000000 1.625600,0.101600 2.269070,0.237060c 0.474130,0.135470 1.049870,0.609610 1.219200,1.083740c 0.135470,0.237070 0.203200,0.677330 0.203200,0.982130c 0.000000,0.406400 -0.169330,1.016000 -0.406400,1.354670z" />
</svg>