<?xml version="1.0" encoding="UTF-8" standalone="yes"?>
<!DOCTYPE svg PUBLIC "-//W3C//DTD SVG 1.0//EN" "http://www.w3.org/TR/2001/REC-SVG-20010904/DTD/svg10.dtd">
<svg height="100%" viewBox="0 0 28 36" width="100%" xmlns="http://www.w3.org/2000/svg" xmlns:svg="http://www.w3.org/2000/svg" xmlns:xlink="http://www.w3.org/1999/xlink">
	<path d="m 16.368216,5.466127l -3.928530,-0.372530c -0.304800,-0.033900 -0.745070,-0.101600 -1.049870,-0.101600c -1.727200,0.000000 -3.826940,1.253070 -4.605870,2.810930c -0.778940,1.591740 -1.388540,4.301070 -1.388540,6.096010c 0.000000,4.030140 1.625600,5.384810 3.928540,5.486410c 2.336800,0.067700 7.078140,0.000000 7.078140,0.000000l 0.000000,5.994400c 0.000000,0.000000 -0.033900,1.422400 -0.508000,1.930400c -0.508000,0.474140 -2.370670,0.440270 -3.048000,-0.101600c -0.677340,-0.508000 0.914400,-2.743200 0.914400,-2.743200l -6.841080,-1.659470c 0.000000,0.000000 -0.982130,0.237070 -1.016000,2.980270c -0.033900,2.743200 0.000000,4.436540 0.914400,5.249340c 0.914400,0.812800 13.749880,-0.745070 14.122420,-2.032000c 0.372530,-1.320800 0.541860,-14.257880 0.541860,-14.257880c 0.000000,0.000000 -0.846660,-1.354670 -4.876800,-1.219200l 0.000000,4.030130c -0.237070,0.033900 -0.609600,0.067700 -0.846670,0.067700c -0.643460,0.000000 -1.659470,-0.203200 -2.302930,-0.440270c -1.591740,-0.677330 -1.422400,-2.302940 -1.422400,-4.673600c 0.000000,-2.370670 0.372530,-3.014140 0.982130,-3.657610c 0.609600,-0.643470 3.420540,-0.440270 3.420540,-0.440270l 0.000000,1.727210l 4.470400,1.625600c 0.000000,0.000000 1.625600,-2.065870 1.693340,-4.199470c 0.067700,-2.133600 -0.575740,-2.777070 -1.354670,-2.810940c -0.812800,-0.033900 -3.894670,0.000000 -3.894670,0.000000z" />
</svg>