<?xml version="1.0" encoding="UTF-8" standalone="yes"?>
<!DOCTYPE svg PUBLIC "-//W3C//DTD SVG 1.0//EN" "http://www.w3.org/TR/2001/REC-SVG-20010904/DTD/svg10.dtd">
<svg height="100%" viewBox="0 0 28 36" width="100%" xmlns="http://www.w3.org/2000/svg" xmlns:svg="http://www.w3.org/2000/svg" xmlns:xlink="http://www.w3.org/1999/xlink">
	<path d="m 9.757440,11.665488l 7.518400,-0.846668c 0.000000,0.000000 -0.372530,7.789341 -0.541860,11.243744c -0.203200,3.488270 -0.304800,4.470404 -0.778940,4.470404c -0.474130,0.000000 -1.998130,-0.237067 -2.201330,-1.016001c -0.237070,-0.778934 0.000000,-6.671740 0.000000,-6.671740l -7.145880,0.677334c 0.304800,8.906942 1.422400,9.347209 1.930400,9.652010c 0.677340,0.406400 1.727210,0.643467 6.705610,0.677334c 2.777070,0.033870 4.334940,-0.237067 5.147740,-0.508001c 0.474130,-0.135467 0.846670,-0.643467 0.846670,-1.117601c 0.067700,-1.794935 0.203200,-6.637873 0.135460,-11.413077c -0.033900,-5.046139 -0.270930,-9.144009 -0.338660,-10.295477c 0.000000,-0.203200 -0.169340,-0.372534 -0.372540,-0.372534c 0.000000,0.000000 0.000000,0.000000 0.000000,0.000000l -10.905070,0.000000z" />
</svg>