<?xml version="1.0" encoding="UTF-8" standalone="yes"?>
<!DOCTYPE svg PUBLIC "-//W3C//DTD SVG 1.0//EN" "http://www.w3.org/TR/2001/REC-SVG-20010904/DTD/svg10.dtd">
<svg height="100%" viewBox="0 0 28 36" width="100%" xmlns="http://www.w3.org/2000/svg" xmlns:svg="http://www.w3.org/2000/svg" xmlns:xlink="http://www.w3.org/1999/xlink">
	<path d="m 6.566260,6.620760l 0.982130,22.893890l 3.996270,0.033900c 0.000000,0.000000 0.033900,-1.727200 -0.440270,-2.810940c -0.474130,-1.083730 -0.846660,-1.151470 -0.982130,-2.709340c -0.135470,-1.557860 0.101600,-2.878660 2.065870,-2.844800c 1.964270,0.033900 3.454400,0.711200 3.759200,7.382940l 5.046140,1.524000c 0.000000,0.000000 0.237070,-1.896530 -0.203200,-2.946400c -0.440270,-1.016000 -4.097870,-5.791200 -4.097870,-5.791200l 4.741340,-4.978410l -4.436540,-2.946400c 0.000000,0.000000 -3.386670,6.062140 -3.928540,6.062140c -0.541860,0.000000 -1.117600,-0.101600 -1.185330,-0.440270c -0.067700,-0.304800 0.880530,-13.140280 0.880530,-13.140280z" />
</svg>