<?xml version="1.0" encoding="UTF-8" standalone="yes"?>
<!DOCTYPE svg PUBLIC "-//W3C//DTD SVG 1.0//EN" "http://www.w3.org/TR/2001/REC-SVG-20010904/DTD/svg10.dtd">
<svg height="100%" viewBox="0 0 28 36" width="100%" xmlns="http://www.w3.org/2000/svg" xmlns:svg="http://www.w3.org/2000/svg" xmlns:xlink="http://www.w3.org/1999/xlink">
	<path d="m 2.180520,25.892339l 2.641600,-0.067700c 0.000000,0.000000 -0.033900,-9.550410 0.474140,-10.634150c 0.541860,-1.083730 4.064000,-1.794930 4.944530,-1.117600c 0.880540,0.643470 0.677340,4.673610 0.609600,7.145880c -0.067700,2.472260 -0.135460,4.876800 -0.135460,4.876800l 5.418670,-0.270930c 0.000000,0.000000 0.067700,-6.908810 0.406400,-7.552280c 0.338670,-0.643460 1.591740,-0.778930 2.675470,-0.880530c 1.117600,-0.101600 1.896530,-0.101600 2.607740,0.677330c 0.745060,0.778940 0.541860,7.755480 0.541860,7.755480l 3.454410,-0.440270c 0.000000,0.000000 -0.508000,-10.092280 -0.643470,-11.176010c -0.169330,-1.117600 -0.643470,-4.199470 -1.557870,-4.301070c -0.880530,-0.101600 -7.484540,2.540000 -7.484540,2.540000c 0.000000,0.000000 0.033900,-2.438400 -1.659470,-2.472270c -1.693330,-0.033900 -4.978400,2.269070 -5.215470,1.930400c -0.237070,-0.304800 -0.677330,-0.778930 -1.016000,-0.982130c -0.406400,-0.304800 -1.185340,-0.406400 -2.946400,-0.406400c -0.880540,0.000000 -2.269070,0.203200 -3.115740,0.474130z" />
</svg>