<?xml version="1.0" encoding="UTF-8" standalone="yes"?>
<!DOCTYPE svg PUBLIC "-//W3C//DTD SVG 1.0//EN" "http://www.w3.org/TR/2001/REC-SVG-20010904/DTD/svg10.dtd">
<svg height="100%" viewBox="0 0 28 36" width="100%" xmlns="http://www.w3.org/2000/svg" xmlns:svg="http://www.w3.org/2000/svg" xmlns:xlink="http://www.w3.org/1999/xlink">
	<path d="m 6.109075,26.449775l 5.689600,-0.508000l 0.000000,-8.703740c 0.000000,-0.778940 0.609600,-1.422400 1.388540,-1.422400c 0.033900,0.000000 0.067700,0.000000 0.067700,0.000000l 1.083730,0.067700c 0.406410,0.000000 0.745070,0.372530 0.745070,0.778930c 0.000000,0.000000 0.000000,0.000000 0.000000,0.000000l -0.169330,8.703750l 6.231470,0.101600c 0.406400,-2.506140 0.745070,-6.536280 0.745070,-9.076280c 0.000000,-0.033900 0.000000,-0.101600 0.000000,-0.135470c 0.000000,0.000000 0.000000,0.000000 0.000000,-0.033900c 0.000000,-0.541870 -0.169330,-1.388540 -0.406400,-1.862670c -0.169340,-0.406400 -0.541870,-1.049870 -0.812800,-1.388540c -0.880540,-1.049860 -2.370670,-1.117600 -2.370670,-1.117600l -6.129870,-0.541860l 0.000000,-1.761070l -3.894670,0.745070z" />
</svg>