<?xml version="1.0" encoding="UTF-8" standalone="yes"?>
<!DOCTYPE svg PUBLIC "-//W3C//DTD SVG 1.0//EN" "http://www.w3.org/TR/2001/REC-SVG-20010904/DTD/svg10.dtd">
<svg height="100%" viewBox="0 0 28 36" width="100%" xmlns="http://www.w3.org/2000/svg" xmlns:svg="http://www.w3.org/2000/svg" xmlns:xlink="http://www.w3.org/1999/xlink">
	<path d="m 21.747331,11.322060c -0.368156,-0.391210 -2.642883,-0.881200 -3.089552,-0.992870c -1.659468,-0.372530 -4.402671,-0.711200 -6.129872,-0.711200c -0.982135,0.033900 -2.573869,0.270940 -3.556004,0.508000c -1.253068,0.372540 -2.540002,1.659470 -2.844802,2.946410c -0.033870,0.135460 -0.067730,0.406400 -0.067730,0.575730l -0.067730,3.420540c 0.000000,4.572000 1.016001,6.942670 1.930402,8.128000c 0.508000,0.643470 1.557868,1.185340 2.370669,1.185340l 4.165604,0.000000c 0.575733,0.000000 1.456268,-0.270940 1.930401,-0.575740l 1.727202,-1.049860c 0.372534,-0.304800 0.914401,-0.880540 1.219201,-1.286940c 1.676112,-2.489510 1.918124,-5.911980 1.728180,-8.530590c -0.003000,-0.041700 0.009400,-0.048600 0.018650,-0.060800c 0.009300,-0.012100 0.049880,-0.018100 0.054670,-0.018300c 0.257107,-0.013900 0.771323,-0.041800 0.771323,-0.041800c 0.092060,-0.648320 0.228959,-3.081960 -0.160612,-3.495920zm -5.968221,8.083390c -0.135467,0.237070 -0.406401,0.541870 -0.609601,0.677330l -0.812801,0.508000c -0.237066,0.169340 -0.643467,0.270940 -0.880534,0.270940l -0.067730,0.000000l -1.998135,0.000000l -0.033870,0.000000c -0.406400,0.000000 -0.880534,-0.237070 -1.117601,-0.575740c -0.440267,-0.609600 -0.914401,-1.828800 -0.948268,-4.267200l 0.033870,-1.828800l 0.000000,0.000000c 0.000000,-0.067700 0.033870,-0.203200 0.033870,-0.304800c 0.135467,-0.643470 0.745067,-1.354670 1.388534,-1.557870c 0.541868,-0.101600 1.422402,-0.203200 1.964269,-0.203200l 0.203200,0.000000c 0.711201,0.000000 1.828802,0.135460 2.506136,0.304800c 0.474134,0.135460 0.914401,0.643470 0.982134,1.117600c 0.270934,1.320800 0.440267,4.064000 -0.643467,5.858940z" />
</svg>