<?xml version="1.0" encoding="UTF-8" standalone="yes"?>
<!DOCTYPE svg PUBLIC "-//W3C//DTD SVG 1.0//EN" "http://www.w3.org/TR/2001/REC-SVG-20010904/DTD/svg10.dtd">
<svg height="100%" viewBox="0 0 28 36" width="100%" xmlns="http://www.w3.org/2000/svg" xmlns:svg="http://www.w3.org/2000/svg" xmlns:xlink="http://www.w3.org/1999/xlink">
	<path d="m 21.891306,18.873019c 0.000000,0.000000 -0.136478,-3.673644 -0.459785,-6.613636c -0.050850,-0.462437 -0.050610,-0.657890 0.003900,-0.735187c 0.042050,-0.059630 0.941647,-0.116971 1.045335,-0.136163c -0.030790,-1.135456 -0.174853,-4.263687 -0.325184,-4.745440c -0.042890,-0.137455 -0.042970,-0.136600 -0.174419,-0.181622c -0.609004,-0.208582 -3.849966,-0.289046 -4.560247,-0.321828c -1.591735,-0.033870 -4.470404,0.101600 -4.470404,0.101600l -4.064004,0.101600c 0.000000,0.000000 -1.896535,-0.033870 -2.506136,1.253068c -0.609601,1.286935 -0.846668,10.227744 -0.846668,10.227744c 0.000000,0.000000 -0.203200,9.889076 0.914401,10.972810c 1.083735,1.117601 6.366940,0.982134 6.366940,0.982134c 0.000000,0.000000 5.791205,0.508001 7.620007,-0.914401c 1.862669,-1.388534 1.456268,-9.990676 1.456268,-9.990676zm -6.434673,8.094141c -0.541867,0.440267 -2.878669,0.406401 -2.878669,0.406401c 0.000000,0.000000 -2.235202,0.000000 -2.946403,-0.711201c -0.711201,-0.677334 -0.372534,-6.841073 -0.372534,-6.841073c 0.000000,0.000000 0.169334,-6.468540 0.914401,-7.382941c 0.711201,-0.880534 2.709336,-0.812800 2.709336,-0.812800c 0.000000,0.000000 2.065869,0.237066 2.641603,1.117601c 0.575734,0.914401 0.575734,4.809071 0.609600,7.586140c 0.033870,2.743203 0.101600,6.028273 -0.677334,6.637873z" />
</svg>