<?xml version="1.0" encoding="UTF-8" standalone="yes"?>
<!DOCTYPE svg PUBLIC "-//W3C//DTD SVG 1.0//EN" "http://www.w3.org/TR/2001/REC-SVG-20010904/DTD/svg10.dtd">
<svg height="100%" viewBox="0 0 28 36" width="100%" xmlns="http://www.w3.org/2000/svg" xmlns:svg="http://www.w3.org/2000/svg" xmlns:xlink="http://www.w3.org/1999/xlink">
	<path d="m 21.366007,6.415704c -1.185334,-1.083740 -5.317072,-1.354670 -8.026407,-1.456270c -1.524002,-0.067700 -4.131738,0.000000 -6.163740,0.000000c -2.336802,0.000000 -2.336802,0.203200 -2.336802,2.810930l 0.000000,23.198690l 3.352803,0.101600l 0.000000,-12.564540l 7.382941,0.711200c 0.000000,0.000000 6.129872,0.440270 6.807206,-0.338670c 0.643468,-0.812800 0.778934,-2.607730 0.778934,-6.028270c 0.000000,-3.386670 -0.609600,-5.350940 -1.794935,-6.434670zm -5.554138,10.058410c -2.472269,0.000000 -2.641603,-1.320800 -2.810936,-4.842940c -0.203201,-3.556000 3.488270,-3.962410 3.488270,-3.962410c 0.203200,-0.033900 0.508000,-0.033900 0.711200,-0.033900c 0.372534,0.000000 0.982135,0.033900 1.320802,0.067700c 1.286934,0.135470 2.065868,1.049870 2.065868,5.147740c 0.000000,4.097870 -2.269069,3.691470 -4.775204,3.623740z" />
</svg>