<?xml version="1.0" encoding="UTF-8" standalone="yes"?>
<!DOCTYPE svg PUBLIC "-//W3C//DTD SVG 1.0//EN" "http://www.w3.org/TR/2001/REC-SVG-20010904/DTD/svg10.dtd">
<svg height="100%" viewBox="0 0 28 36" width="100%" xmlns="http://www.w3.org/2000/svg" xmlns:svg="http://www.w3.org/2000/svg" xmlns:xlink="http://www.w3.org/1999/xlink">
	<path d="m 21.211158,16.506444c -0.033870,-4.131737 0.033870,-6.502406 -0.508001,-7.586140c -0.541867,-1.083735 -1.727201,-2.269069 -3.048003,-2.438403c -1.286934,-0.203200 -6.129872,-0.406400 -7.789340,-0.304800c -0.880535,0.067730 -2.269069,0.270934 -3.081870,0.474134l 0.000000,23.198689l 6.908807,-0.270934l 0.000000,-4.842938c 0.000000,0.000000 5.350938,-0.101600 6.129872,-0.914401c 0.812801,-0.812801 1.456268,-3.183469 1.388535,-7.315207zm -7.450674,5.249339c -0.609601,0.508000 -2.336802,0.406400 -3.149603,0.338667c -0.203200,-0.033870 -0.406400,-0.203201 -0.406400,-0.440267c 0.000000,0.000000 0.000000,0.000000 0.000000,0.000000l 0.406400,-12.632279c 0.000000,-0.203200 0.135467,-0.338667 0.304800,-0.338667l 1.625602,0.000000c 0.033870,0.000000 0.033870,0.000000 0.033870,0.000000c 0.474133,0.000000 0.982134,0.372533 1.117601,0.846667c 0.304800,0.982134 0.609600,2.980270 0.643467,6.637873c 0.067730,4.538138 0.237067,4.910672 -0.575734,5.588006z" />
</svg>