<?xml version="1.0" encoding="UTF-8" standalone="yes"?>
<!DOCTYPE svg PUBLIC "-//W3C//DTD SVG 1.0//EN" "http://www.w3.org/TR/2001/REC-SVG-20010904/DTD/svg10.dtd">
<svg height="100%" viewBox="0 0 28 36" width="100%" xmlns="http://www.w3.org/2000/svg" xmlns:svg="http://www.w3.org/2000/svg" xmlns:xlink="http://www.w3.org/1999/xlink">
	<path d="m 6.173764,17.680986c 0.000000,0.474130 0.372540,1.117600 0.778940,1.422400c 0.508000,0.338670 1.456270,0.643470 2.065870,0.711200c 3.420530,0.406400 6.739470,-1.151460 6.739470,-1.151460l -0.609600,11.243740l 6.705610,-1.286940l -0.643470,-21.268280c 0.000000,0.000000 -1.693340,-1.354670 -7.247470,-1.253070c -5.554140,0.067700 -6.299210,0.677330 -7.315210,2.506140c -0.609600,1.083730 -0.508000,7.145870 -0.474140,9.076270zm 9.956810,-7.958670c 2.167470,0.033900 2.302940,0.914400 2.472270,3.386670c 0.169340,2.438400 -3.081870,2.743200 -3.081870,2.743200c -0.169330,0.000000 -0.440260,0.033900 -0.609600,0.033900c -0.304800,0.000000 -0.846660,-0.033900 -1.185330,-0.067700c -1.117600,-0.101600 -1.794940,-0.745060 -1.794940,-3.589870c 0.000000,-2.844800 1.998140,-2.540000 4.199470,-2.506130z" />
</svg>