<?xml version="1.0" encoding="UTF-8" standalone="yes"?>
<!DOCTYPE svg PUBLIC "-//W3C//DTD SVG 1.0//EN" "http://www.w3.org/TR/2001/REC-SVG-20010904/DTD/svg10.dtd">
<svg height="100%" viewBox="0 0 28 36" width="100%" xmlns="http://www.w3.org/2000/svg" xmlns:svg="http://www.w3.org/2000/svg" xmlns:xlink="http://www.w3.org/1999/xlink">
	<path d="m 18.114801,20.574735c 0.508001,-0.338667 1.083738,-1.083734 1.320798,-1.625601c 0.508000,-1.219202 0.711200,-3.623737 0.677340,-6.434673c -0.033900,-2.810936 -0.541870,-4.572005 -1.727204,-5.317072c -0.948268,-0.643467 -2.235202,-0.982134 -3.894670,-1.049868c -1.625602,-0.033870 -7.823208,0.440267 -7.823208,0.440267c 0.237067,1.794935 0.474134,4.741338 0.474134,6.570140c 0.000000,0.169334 0.000000,0.474134 0.000000,0.643467c -0.033870,4.301071 -0.609601,14.698148 -0.609601,14.698148l 3.522137,0.101600l 0.000000,-6.604006l 3.352803,0.000000l 1.659468,7.857074l 6.400811,-0.338667zm -0.948267,-6.908806c 0.000000,0.067730 0.000000,0.169333 0.000000,0.270933c 0.000000,1.016001 -0.135467,2.709336 -0.304801,3.725337c -0.067730,0.440267 -0.508000,0.812801 -0.948267,0.812801c 0.000000,0.000000 -0.033870,0.000000 -0.033870,0.000000l -3.488270,-0.067730l 0.101600,-9.956809l 3.556004,0.067730c 0.338667,0.000000 0.677334,0.270934 0.778934,0.609601c 0.203200,1.049867 0.372533,2.777069 0.372533,3.860804c 0.000000,0.169333 -0.033870,0.474133 -0.033870,0.677334z" />
</svg>