<?xml version="1.0" encoding="UTF-8" standalone="yes"?>
<!DOCTYPE svg PUBLIC "-//W3C//DTD SVG 1.0//EN" "http://www.w3.org/TR/2001/REC-SVG-20010904/DTD/svg10.dtd">
<svg height="100%" viewBox="0 0 28 36" width="100%" xmlns="http://www.w3.org/2000/svg" xmlns:svg="http://www.w3.org/2000/svg" xmlns:xlink="http://www.w3.org/1999/xlink">
	<path d="m 21.087973,7.206317c -1.964270,-0.474134 -5.215470,-0.914401 -7.247480,-1.016001c -1.964260,-0.101600 -4.842930,-0.237067 -6.231470,1.456268c -2.777070,3.420536 -1.185330,8.771475 2.506140,10.532543c 1.049860,0.474134 2.133600,0.914401 3.183470,1.354668c 1.151460,0.508001 3.149600,0.982134 3.725330,2.269069c 1.185340,2.675469 -2.540000,3.014136 -4.165600,2.980270c -2.269070,-0.067730 -4.199470,-0.711201 -6.231470,-1.727202l -0.338670,6.807206c 3.115740,-0.067730 6.231470,-0.101600 9.347210,-0.237066c 3.623740,-0.169334 6.773340,-2.065869 6.062140,-6.231473c -0.609600,-3.556004 -3.623740,-4.876805 -6.604010,-6.163739c -1.320800,-0.575734 -3.048000,-1.049868 -4.233340,-1.930402c -1.524000,-1.151468 -0.948260,-3.420537 0.846670,-3.962404c 2.946400,-0.880534 6.671740,1.286935 9.245610,2.506136z" />
</svg>