<?xml version="1.0" encoding="UTF-8" standalone="yes"?>
<!DOCTYPE svg PUBLIC "-//W3C//DTD SVG 1.0//EN" "http://www.w3.org/TR/2001/REC-SVG-20010904/DTD/svg10.dtd">
<svg height="100%" viewBox="0 0 28 36" width="100%" xmlns="http://www.w3.org/2000/svg" xmlns:svg="http://www.w3.org/2000/svg" xmlns:xlink="http://www.w3.org/1999/xlink">
	<path d="m 6.878481,11.121684c -0.372530,0.067700 -0.677330,0.406400 -0.711200,0.778930c -0.169330,2.506140 -0.541860,11.176010 1.185340,12.564550c 1.998130,1.625600 2.946400,1.693330 5.858940,1.693330c 2.878670,0.000000 5.655740,-0.067700 7.213600,-1.490130c 1.557870,-1.422410 2.370670,-12.632280 0.406400,-14.359480c -1.490130,-1.354670 -3.962400,0.575730 -4.978400,1.490130c -0.135470,0.101600 -0.270930,0.372530 -0.270930,0.575730c 0.000000,0.101600 0.033900,0.270940 0.101600,0.372540c 0.711200,1.388530 2.641600,5.147740 2.844800,6.773340c 0.237070,1.964270 -0.880540,2.709330 -3.826940,2.607730c -2.980270,-0.101600 -3.589870,0.067700 -4.097870,-0.982130c -0.541870,-1.083730 1.761070,-6.333070 1.286940,-10.363210c -0.033900,-0.237070 -0.237070,-0.406400 -0.474140,-0.406400c -0.033900,0.000000 -0.067700,0.000000 -0.067700,0.000000z" />
</svg>