<?xml version="1.0" encoding="UTF-8" standalone="yes"?>
<!DOCTYPE svg PUBLIC "-//W3C//DTD SVG 1.0//EN" "http://www.w3.org/TR/2001/REC-SVG-20010904/DTD/svg10.dtd">
<svg height="100%" viewBox="0 0 28 36" width="100%" xmlns="http://www.w3.org/2000/svg" xmlns:svg="http://www.w3.org/2000/svg" xmlns:xlink="http://www.w3.org/1999/xlink">
	<path d="m 10.579460,9.634076l -4.436530,-1.151468l 0.270930,17.780017c 0.067700,0.812801 0.643470,1.862669 1.286930,2.336803c 1.117600,0.812800 3.691470,1.286934 4.504270,1.253067l 3.860810,0.000000c 0.000000,0.000000 2.201330,0.000000 3.928540,-0.846667c 1.727200,-0.846668 1.862660,-3.759204 1.862660,-3.759204l 0.000000,-19.100818l -5.791200,0.643467l 0.000000,17.238150c 0.000000,0.000000 0.067700,1.456268 -0.745070,1.862669c -0.643470,0.203200 -1.693330,0.406400 -2.336800,0.406400c -1.286940,0.000000 -2.302940,-0.169333 -2.336800,-1.016001c 0.000000,-0.541867 -0.067700,-15.646415 -0.067700,-15.646415z" />
</svg>