<?xml version="1.0" encoding="UTF-8" standalone="yes"?>
<!DOCTYPE svg PUBLIC "-//W3C//DTD SVG 1.0//EN" "http://www.w3.org/TR/2001/REC-SVG-20010904/DTD/svg10.dtd">
<svg height="100%" viewBox="0 0 28 36" width="100%" xmlns="http://www.w3.org/2000/svg" xmlns:svg="http://www.w3.org/2000/svg" xmlns:xlink="http://www.w3.org/1999/xlink">
	<path d="m 1.164520,10.650925c 0.000000,0.000000 1.016000,7.857070 2.235200,11.108280c 0.914400,2.370670 1.693330,3.556000 2.065870,4.064000c 0.101600,0.135470 0.304800,0.237070 0.508000,0.237070l 0.000000,0.000000l 6.773340,0.000000l 0.372530,-2.573870c 0.033900,-0.237070 0.237070,-0.440270 0.474140,-0.440270l 0.000000,0.000000l 1.320800,0.000000c 0.203200,0.000000 0.406400,0.169330 0.440260,0.372540l 0.338670,2.472260l 4.809070,0.000000l 0.000000,0.000000c 0.169340,0.000000 0.372540,-0.101600 0.474140,-0.203200c 0.643460,-0.812800 2.878670,-3.725330 3.793070,-6.468540c 1.049860,-3.217330 2.065870,-8.026400 2.065870,-8.026400l -3.454410,-1.253070l -2.065870,8.365070c -0.033900,0.067700 -0.101600,0.237070 -0.135460,0.304800c -0.169340,0.270940 -0.609600,0.846670 -1.286940,0.846670c -0.508000,0.000000 -1.049870,-0.406400 -1.388530,-0.745070c -0.203200,-0.203200 -0.406400,-0.575730 -0.406400,-0.846660l -0.609600,-6.874940l -6.502410,0.000000l -0.474130,10.701870c 0.000000,0.000000 0.067700,0.677340 -1.083740,0.711200c -1.151470,0.000000 -1.896530,-0.101600 -1.930400,-0.541860c -0.067700,-0.440270 -1.016000,-11.277610 -1.016000,-11.277610z" />
</svg>