<?xml version="1.0" encoding="UTF-8" standalone="yes"?>
<!DOCTYPE svg PUBLIC "-//W3C//DTD SVG 1.0//EN" "http://www.w3.org/TR/2001/REC-SVG-20010904/DTD/svg10.dtd">
<svg height="100%" viewBox="0 0 28 36" width="100%" xmlns="http://www.w3.org/2000/svg" xmlns:svg="http://www.w3.org/2000/svg" xmlns:xlink="http://www.w3.org/1999/xlink">
	<path d="m 3.348925,6.244945c 0.000000,0.000000 1.794940,18.626685 2.336800,21.200554c 0.237070,1.185335 0.914400,1.794935 1.286940,1.930402c 0.372530,0.135467 4.199470,0.237067 4.267200,0.101600c 0.846670,-1.219201 1.828800,-8.297341 1.828800,-8.297341l 1.862670,0.000000c 0.000000,0.000000 1.083740,6.163739 1.761070,7.382940c 0.643470,1.253068 1.490130,1.253068 1.490130,1.253068l 3.318940,0.033870c 0.000000,0.000000 1.320800,1.049867 3.149600,-23.300289l -4.741330,0.000000c 0.000000,0.000000 0.440260,14.359480 0.000000,16.730149c -0.101600,0.609601 -1.659470,0.474134 -1.828810,0.135467c -0.778930,-1.320801 -0.846660,-14.596547 -0.846660,-14.596547l -7.857080,0.000000l 0.372540,15.307748l -3.014140,0.000000l -0.474130,-17.983221z" />
</svg>