<?xml version="1.0" encoding="UTF-8" standalone="yes"?>
<!DOCTYPE svg PUBLIC "-//W3C//DTD SVG 1.0//EN" "http://www.w3.org/TR/2001/REC-SVG-20010904/DTD/svg10.dtd">
<svg height="100%" viewBox="0 0 28 36" width="100%" xmlns="http://www.w3.org/2000/svg" xmlns:svg="http://www.w3.org/2000/svg" xmlns:xlink="http://www.w3.org/1999/xlink">
	<path d="m 11.076000,24.197606l 0.000000,5.655739l 6.163740,0.000000l -0.508000,-5.655739c 0.000000,0.000000 2.743200,0.000000 3.420530,-0.508001c 0.677340,-0.474133 1.016000,-0.643467 1.286940,-3.048002c 0.237060,-2.438403 0.406400,-8.432809 0.203200,-10.363210l -0.440270,-3.894671l -6.163740,-0.237067c 0.000000,0.000000 0.711200,3.014137 1.049870,4.775205c 0.338670,1.761068 1.286930,7.179740 1.083730,9.448809c -0.203200,2.235202 -1.422400,2.336802 -1.422400,2.336802c -0.474130,0.135467 -1.286930,0.237067 -1.761070,0.237067c -0.203200,0.000000 -0.474130,0.000000 -0.677330,-0.033870c -1.117600,-0.169333 -2.472270,-0.541867 -2.844800,-1.185334c -0.338670,-0.643467 -0.067700,-5.350939 0.169330,-7.450674c 0.135470,-1.490135 0.575730,-3.826937 0.914400,-5.249338c 0.101600,-0.406401 0.372540,-0.982135 0.609600,-1.320802l -5.452540,0.067730c -0.270930,1.490135 -0.440260,3.962404 -0.440260,5.486405c 0.000000,0.541867 0.000000,1.456268 0.033900,1.998135c 0.304800,3.657604 0.812800,6.807207 1.219200,7.382941c 0.304800,0.508000 0.982140,1.016001 1.557870,1.117601c 0.541870,0.169333 1.422400,0.372534 1.998140,0.440267z" />
</svg>