<?xml version="1.0" encoding="UTF-8" standalone="yes"?>
<!DOCTYPE svg PUBLIC "-//W3C//DTD SVG 1.0//EN" "http://www.w3.org/TR/2001/REC-SVG-20010904/DTD/svg10.dtd">
<svg height="100%" viewBox="0 0 28 36" width="100%" xmlns="http://www.w3.org/2000/svg" xmlns:svg="http://www.w3.org/2000/svg" xmlns:xlink="http://www.w3.org/1999/xlink">
	<path d="m 7.192795,9.683515l -0.609600,4.097870l 5.960540,0.033900c 0.541860,0.101600 0.270930,1.761070 -0.169340,2.167470c -0.372530,0.304800 -4.064000,3.725330 -3.996270,4.301070c 0.135470,1.930400 0.643470,5.960540 0.643470,5.960540c 0.000000,0.000000 9.177880,0.372530 10.498680,-0.575740c 0.948260,-0.677330 1.591730,-2.573870 1.896530,-3.556000c 0.000000,0.000000 0.000000,-0.033900 0.000000,-0.067700c 0.000000,-0.135470 -0.101600,-0.237070 -0.237070,-0.237070c -0.033900,0.000000 -0.067700,0.033900 -0.101600,0.033900c -0.812800,0.474130 -2.404530,1.286930 -3.420530,1.286930c 0.000000,0.000000 -0.033900,0.000000 -0.033900,0.000000c -0.372530,0.000000 -0.948270,-0.135470 -1.253070,-0.304800c -0.508000,-0.270930 -0.948260,-1.490130 -0.745060,-2.032000l 3.183470,-6.841070l -0.304800,-3.759210c -1.456270,0.203200 -3.826940,0.406400 -5.317080,0.474140c -1.896530,0.000000 -5.994400,-0.982140 -5.994400,-0.982140z" />
</svg>